<svg width="41.000000" height="47.000000" viewBox="0 0 41 47" fill="none" xmlns="http://www.w3.org/2000/svg" xmlns:xlink="http://www.w3.org/1999/xlink">
	<desc>
			Created with Pixso.
	</desc>
	<defs/>
	<path id="Union" d="M6 0L13.0078 6.63412L0 6.62646L0 38.8137L34 38.8137L34 26.507L41 33.1338L41 0L6 0ZM33.6924 6.91795L33.6924 25.7283L13.8226 6.91795L33.6924 6.91795ZM27.5232 34.1055L5.38013 34.1055L5.38013 12.4579L6.94531 12.4579L6.94531 32.6397L27.5232 32.6397L27.5232 34.1055ZM15.7677 45.4554Q15.7334 45.5697 15.7334 45.6943Q15.7334 45.9603 15.8442 46.1668Q15.9205 46.3091 16.0496 46.4231Q16.0789 46.449 16.11 46.4725Q16.4146 46.7026 16.8931 46.7026Q17.2883 46.7026 17.6013 46.5421Q17.7059 46.4885 17.8013 46.417L18.0015 46.6538L18.6899 46.6538L18.1675 46.0361Q18.4751 45.6162 18.4751 44.9595L17.96 44.9595Q17.96 45.2796 17.8414 45.5472Q17.8271 45.5797 17.811 45.6113L17.125 44.8008L17.3667 44.625Q17.623 44.4395 17.7354 44.2527Q17.7839 44.1719 17.8115 44.0844Q17.8477 43.9698 17.8477 43.8438Q17.8477 43.6753 17.7858 43.534Q17.7238 43.3927 17.5999 43.2786Q17.54 43.2235 17.4722 43.1817Q17.2584 43.0503 16.9639 43.0503Q16.6029 43.0503 16.366 43.2217Q16.3209 43.2544 16.2803 43.2932Q16.2213 43.3497 16.176 43.4156Q16.0264 43.6331 16.0264 43.9536Q16.0264 44.1245 16.1082 44.3076Q16.1899 44.4907 16.3975 44.752Q16.002 45.0352 15.8677 45.2415Q15.8013 45.3435 15.7677 45.4554ZM22.7621 46.2343Q22.996 45.9422 23.0381 45.4966L22.4229 45.4966Q22.374 45.8774 22.1909 46.041Q22.0078 46.2046 21.644 46.2046Q21.4076 46.2046 21.2389 46.0977Q21.1235 46.0247 21.0398 45.9019Q20.8335 45.5991 20.8335 45.0229L20.8335 44.708Q20.8384 44.1392 21.0544 43.845Q21.1366 43.7331 21.2458 43.6637Q21.4237 43.5508 21.6733 43.5508Q22.02 43.5508 22.1995 43.7205Q22.3789 43.8901 22.4229 44.2734L23.0381 44.2734Q22.988 43.7756 22.7195 43.4697Q22.6733 43.4171 22.6206 43.3701Q22.5745 43.329 22.5245 43.2932Q22.186 43.0503 21.6733 43.0503Q21.3052 43.0503 21.0107 43.1975Q20.9556 43.2251 20.9031 43.2578Q20.8109 43.3152 20.7307 43.386Q20.5205 43.5713 20.3916 43.8486Q20.2134 44.2319 20.2134 44.7349L20.2134 45.0669Q20.2207 45.5576 20.3965 45.9287Q20.525 46.2 20.7325 46.3807Q20.8088 46.4471 20.8958 46.5012Q20.9453 46.5321 20.9973 46.5582Q21.2844 46.7026 21.644 46.7026Q22.2025 46.7026 22.557 46.4337Q22.5884 46.4099 22.6182 46.384Q22.6975 46.315 22.7621 46.2343ZM26.2461 45.886Q26.4268 45.4917 26.4268 44.9692L26.4268 44.7715Q26.4243 44.2515 26.2412 43.8596Q26.1 43.5574 25.868 43.3642Q25.7992 43.3068 25.7224 43.259Q25.6571 43.2184 25.588 43.1857Q25.3021 43.0503 24.9521 43.0503Q24.6088 43.0503 24.327 43.1822Q24.2523 43.2172 24.1819 43.2615Q24.1158 43.303 24.0557 43.3518Q23.8099 43.5509 23.6619 43.8706Q23.4775 44.2686 23.4775 44.7886L23.4775 44.9888Q23.48 45.499 23.6643 45.8896Q23.802 46.1816 24.0258 46.3733Q24.1013 46.4381 24.1868 46.4915Q24.2678 46.5421 24.3544 46.5806Q24.6285 46.7026 24.957 46.7026Q25.3097 46.7026 25.5964 46.5651Q25.6649 46.5322 25.7297 46.4915Q25.8077 46.4424 25.8773 46.3834Q26.1074 46.1887 26.2461 45.886ZM10.6089 43.0991L9.79102 44.7837L8.97314 43.0991L8.28711 43.0991L9.48096 45.3452L9.48096 46.6538L10.1011 46.6538L10.1011 45.3452L11.2925 43.0991L10.6089 43.0991ZM11.6367 46.6538L11.9248 45.8262L13.3018 45.8262L13.5923 46.6538L14.2368 46.6538L12.8916 43.0991L12.3374 43.0991L10.9946 46.6538L11.6367 46.6538ZM16.8345 44.4541Q16.583 44.144 16.583 43.939Q16.583 43.8028 16.6428 43.7023Q16.6614 43.6712 16.6855 43.6436Q16.7209 43.6031 16.7648 43.5766Q16.8479 43.5264 16.9614 43.5264Q17.0742 43.5264 17.1594 43.5748Q17.196 43.5956 17.2275 43.6252Q17.286 43.6803 17.3119 43.7478Q17.3325 43.8016 17.3325 43.8633Q17.3325 43.9798 17.2859 44.073Q17.2485 44.1477 17.1812 44.2075L17.1055 44.2686L16.8345 44.4541ZM25.5857 43.8779Q25.8091 44.1929 25.8091 44.7837L25.8091 44.9692Q25.8091 45.5698 25.5881 45.8823Q25.4957 46.0131 25.3701 46.0892Q25.1956 46.1948 24.957 46.1948Q24.7395 46.1948 24.5729 46.1026Q24.4292 46.0231 24.3235 45.875Q24.0952 45.5552 24.0952 44.9692L24.0952 44.7642Q24.1001 44.1904 24.3259 43.8767Q24.4293 43.7331 24.5692 43.6552Q24.735 43.563 24.9521 43.563Q25.1865 43.563 25.3599 43.6658Q25.49 43.7429 25.5857 43.8779ZM12.6133 43.8535L13.1284 45.3281L12.0981 45.3281L12.6133 43.8535ZM17.0764 46.2131Q16.9949 46.229 16.9102 46.229Q16.694 46.229 16.5487 46.1275Q16.5151 46.1041 16.4854 46.0752Q16.4341 46.0255 16.3994 45.9662Q16.3267 45.8417 16.3267 45.6748Q16.3267 45.6172 16.3386 45.5621Q16.3857 45.3443 16.6196 45.167L16.6953 45.1133L17.4717 46.0288Q17.2841 46.1726 17.0764 46.2131Z" clip-rule="evenodd" fill="#AFB1B8" fill-opacity="1.000000" fill-rule="evenodd"/>
</svg>
